<svg xmlns="http://www.w3.org/2000/svg" viewBox="0 0 954.12 387.49"><path d="M561.51.09a193,193,0,0,0-35.78,3.33c89.83,16.82,157.88,88.8,157.88,183.49,0,67.46-54.65,128.94-122.1,128.94A122.08,122.08,0,0,1,525.73,77,123.9,123.9,0,0,0,490,71.73c-67.45,0-122.1,61.47-122.1,128.93,0,94.7,68,166.76,157.88,183.5A193.83,193.83,0,0,0,742.87,262.05V125.52C715.12,52.26,644.42.09,561.51.09Z" fill="#37322d" opacity="0.25" style="isolation:isolate"/><path d="M525.73,3.42A193.71,193.71,0,0,0,300.65,152.76a6.41,6.41,0,0,1-6.32,5H200.06a6.47,6.47,0,0,0-6.49,6.4h0v58.58a6.5,6.5,0,0,0,6.49,6.49H282.8a6.48,6.48,0,0,1,6.49,6.49v29a13,13,0,0,1-3.16,8.45,122.06,122.06,0,1,1-39.7-189.65,6.48,6.48,0,0,0,8.45-2.47l30.06-50.55a6.52,6.52,0,0,0-2.22-8.88c-.09-.09-.17-.09-.34-.17A192.32,192.32,0,0,0,193.57,0C86.67.09,0,86.84,0,193.74S86.67,387.4,193.66,387.4A193,193,0,0,0,337,324a6.48,6.48,0,0,1,9.14-.43c.17.17.34.26.43.43a194.1,194.1,0,0,0,179.14,60.2c-89.83-16.74-157.88-88.8-157.88-183.5,0-67.46,54.65-128.93,122.1-128.93a122.14,122.14,0,0,1,35.78,238.91,118,118,0,0,0,35.78,5.29c67.45,0,122.1-61.48,122.1-128.93C683.53,92.22,615.56,20.24,525.73,3.42Zm421.9,307h-127a6.48,6.48,0,0,1-6.49-6.49V12.13a6.47,6.47,0,0,0-6.41-6.49H749.19a6.48,6.48,0,0,0-6.49,6.49V369a12.88,12.88,0,0,0,12.89,12.89h192a6.49,6.49,0,0,0,6.49-6.49V316.79A6.48,6.48,0,0,0,947.63,310.38Z" fill="#ff7020"/></svg>